<svg id="integration-logos" xmlns="http://www.w3.org/2000/svg" viewBox="0 0 300 250"><g id="aws-logo"><path d="M109.864,136.2a18.523,18.523,0,0,0,.673,5.445,32.9,32.9,0,0,0,1.958,4.405,2.656,2.656,0,0,1,.428,1.407,2.422,2.422,0,0,1-1.162,1.835l-3.854,2.57a2.936,2.936,0,0,1-1.591.55,2.814,2.814,0,0,1-1.835-.856,18.926,18.926,0,0,1-2.2-2.876c-.612-1.04-1.223-2.2-1.9-3.609A22.6,22.6,0,0,1,82.4,153.509c-5.139,0-9.238-1.468-12.236-4.4s-4.527-6.852-4.527-11.747a15.75,15.75,0,0,1,5.567-12.6c3.732-3.181,8.688-4.772,14.989-4.772a48.431,48.431,0,0,1,6.485.49c2.264.306,4.589.8,7.036,1.346v-4.466c0-4.65-.979-7.892-2.876-9.789-1.957-1.9-5.261-2.814-9.972-2.814a27.81,27.81,0,0,0-6.607.8,48.9,48.9,0,0,0-6.608,2.08,17.482,17.482,0,0,1-2.141.8,3.727,3.727,0,0,1-.979.184c-.856,0-1.285-.612-1.285-1.9v-3a3.874,3.874,0,0,1,.429-2.142,4.577,4.577,0,0,1,1.713-1.284,35.178,35.178,0,0,1,7.708-2.753,37.063,37.063,0,0,1,9.544-1.163c7.281,0,12.6,1.652,16.029,4.956,3.365,3.3,5.078,8.32,5.078,15.05V136.2Zm-24.838,9.3a19.826,19.826,0,0,0,6.3-1.1,13.625,13.625,0,0,0,5.812-3.916,9.706,9.706,0,0,0,2.08-3.915,21.969,21.969,0,0,0,.612-5.323v-2.569a50.765,50.765,0,0,0-5.628-1.04,46.057,46.057,0,0,0-5.751-.367c-4.1,0-7.1.8-9.116,2.447a8.526,8.526,0,0,0-3,7.035c0,2.876.734,5.017,2.264,6.485C80.07,144.761,82.211,145.5,85.026,145.5Zm49.126,6.607a3.414,3.414,0,0,1-2.324-.611,4.988,4.988,0,0,1-1.285-2.386l-14.377-47.292a10.725,10.725,0,0,1-.551-2.447,1.343,1.343,0,0,1,1.469-1.53h5.995a3.393,3.393,0,0,1,2.386.612,5.01,5.01,0,0,1,1.224,2.386l10.278,40.5,9.544-40.5a4.3,4.3,0,0,1,1.162-2.386,4.21,4.21,0,0,1,2.447-.612h4.895a3.684,3.684,0,0,1,2.447.612,4.128,4.128,0,0,1,1.162,2.386l9.666,40.99,10.584-40.99a5.251,5.251,0,0,1,1.224-2.386,3.992,3.992,0,0,1,2.386-.612h5.69a1.36,1.36,0,0,1,1.529,1.53,6.116,6.116,0,0,1-.122.979,8.679,8.679,0,0,1-.429,1.529l-14.744,47.292a4.7,4.7,0,0,1-1.284,2.386,3.916,3.916,0,0,1-2.325.612h-5.262a3.684,3.684,0,0,1-2.447-.612,4.346,4.346,0,0,1-1.162-2.447l-9.483-39.461-9.422,39.4a4.776,4.776,0,0,1-1.162,2.448,3.793,3.793,0,0,1-2.447.611Zm78.616,1.652a40.493,40.493,0,0,1-9.422-1.1,27.862,27.862,0,0,1-7.036-2.447,4.419,4.419,0,0,1-1.9-1.713,4.317,4.317,0,0,1-.367-1.713v-3.12c0-1.285.489-1.9,1.407-1.9a3.446,3.446,0,0,1,1.1.184c.367.122.918.367,1.53.611a33.286,33.286,0,0,0,6.729,2.142,36.78,36.78,0,0,0,7.281.734c3.854,0,6.852-.673,8.932-2.019a6.588,6.588,0,0,0,3.181-5.812,5.957,5.957,0,0,0-1.652-4.283c-1.1-1.162-3.181-2.2-6.179-3.181l-8.871-2.753c-4.466-1.407-7.77-3.487-9.788-6.24a14.576,14.576,0,0,1-3.059-8.871,13.618,13.618,0,0,1,1.651-6.791,15.744,15.744,0,0,1,4.405-5.017,19.426,19.426,0,0,1,6.363-3.181,26.671,26.671,0,0,1,7.709-1.04,30.646,30.646,0,0,1,4.1.245c1.407.183,2.691.428,3.976.673,1.224.3,2.386.611,3.487.978a13.338,13.338,0,0,1,2.57,1.1,5.283,5.283,0,0,1,1.835,1.529,3.3,3.3,0,0,1,.551,2.019v2.875c0,1.285-.49,1.958-1.407,1.958a6.369,6.369,0,0,1-2.325-.734,27.983,27.983,0,0,0-11.746-2.386c-3.488,0-6.241.551-8.137,1.713a5.907,5.907,0,0,0-2.876,5.445,5.778,5.778,0,0,0,1.836,4.344c1.223,1.162,3.487,2.324,6.729,3.365l8.688,2.753c4.405,1.407,7.586,3.364,9.483,5.873a13.847,13.847,0,0,1,2.814,8.565,15.728,15.728,0,0,1-1.591,7.1,16.44,16.44,0,0,1-4.466,5.383,19.7,19.7,0,0,1-6.791,3.426A29.073,29.073,0,0,1,212.768,153.754Z" fill="#252f3e"/><path d="M224.33,183.487c-20.127,14.867-49.371,22.759-74.516,22.759a134.8,134.8,0,0,1-90.973-34.689c-1.9-1.713-.184-4.038,2.08-2.692a183.471,183.471,0,0,0,91.035,24.166,181.66,181.66,0,0,0,69.438-14.193C224.759,177.308,227.634,181.04,224.33,183.487Z" fill="#f90" fill-rule="evenodd"/><path d="M232.712,173.943c-2.57-3.3-17.008-1.59-23.554-.8-1.958.245-2.264-1.468-.489-2.753,11.5-8.076,30.406-5.751,32.608-3.059,2.2,2.753-.612,21.657-11.379,30.712-1.652,1.407-3.243.673-2.509-1.163C229.837,190.829,235.282,177.186,232.712,173.943Z" fill="#f90" fill-rule="evenodd"/></g></svg>